<mxfile host="embed.diagrams.net" modified="2023-09-18T14:22:38.064Z" agent="Mozilla/5.0 (Windows NT 10.0; Win64; x64; rv:109.0) Gecko/20100101 Firefox/117.0" etag="hnme3Yd_0OYm-Yq8uHGL" version="21.7.5" type="embed">
  <diagram id="zAbHjWtZZGTPxqwVRYIj" name="Seite-1">
    <mxGraphModel grid="1" page="1" gridSize="10" guides="1" tooltips="1" connect="1" arrows="1" fold="1" pageScale="1" pageWidth="827" pageHeight="1169" math="0" shadow="0">
      <root>
        <mxCell id="0" />
        <mxCell id="1" parent="0" />
        <mxCell id="L7Yim6IdFTFNtt6rjXfk-1" value="Anwender" style="shape=umlActor;verticalLabelPosition=bottom;verticalAlign=top;html=1;outlineConnect=0;" vertex="1" parent="1">
          <mxGeometry x="160" y="185" width="30" height="60" as="geometry" />
        </mxCell>
        <mxCell id="L7Yim6IdFTFNtt6rjXfk-2" value="" style="shape=folder;fontStyle=1;spacingTop=10;tabWidth=110;tabHeight=30;tabPosition=left;html=1;whiteSpace=wrap;" vertex="1" parent="1">
          <mxGeometry x="300" y="130" width="190" height="180" as="geometry" />
        </mxCell>
        <mxCell id="L7Yim6IdFTFNtt6rjXfk-3" value="WirSchiffenDas" style="text;whiteSpace=wrap;html=1;fontStyle=1" vertex="1" parent="1">
          <mxGeometry x="310" y="130" width="100" height="20" as="geometry" />
        </mxCell>
        <mxCell id="Uq1Z9XiAAdLzME6Be9Bc-4" style="rounded=0;orthogonalLoop=1;jettySize=auto;html=1;exitX=0;exitY=0.5;exitDx=0;exitDy=0;endArrow=none;endFill=0;" edge="1" parent="1" source="Uq1Z9XiAAdLzME6Be9Bc-1">
          <mxGeometry relative="1" as="geometry">
            <mxPoint x="200" y="220" as="targetPoint" />
          </mxGeometry>
        </mxCell>
        <mxCell id="Uq1Z9XiAAdLzME6Be9Bc-1" value="Konfiguration&lt;br&gt;verwalten" style="ellipse;whiteSpace=wrap;html=1;" vertex="1" parent="1">
          <mxGeometry x="320" y="240" width="150" height="50" as="geometry" />
        </mxCell>
        <mxCell id="Uq1Z9XiAAdLzME6Be9Bc-2" value="Analyse durchfÃ¼hren" style="ellipse;whiteSpace=wrap;html=1;" vertex="1" parent="1">
          <mxGeometry x="320" y="180" width="150" height="50" as="geometry" />
        </mxCell>
        <mxCell id="Uq1Z9XiAAdLzME6Be9Bc-3" style="rounded=0;orthogonalLoop=1;jettySize=auto;html=1;entryX=0;entryY=0.5;entryDx=0;entryDy=0;endArrow=none;endFill=0;" edge="1" parent="1" target="Uq1Z9XiAAdLzME6Be9Bc-2">
          <mxGeometry relative="1" as="geometry">
            <mxPoint x="200" y="205" as="sourcePoint" />
          </mxGeometry>
        </mxCell>
        <mxCell id="Uq1Z9XiAAdLzME6Be9Bc-5" value="" style="shape=folder;fontStyle=1;spacingTop=10;tabWidth=60;tabHeight=30;tabPosition=left;html=1;whiteSpace=wrap;" vertex="1" parent="1">
          <mxGeometry x="590" y="170" width="150" height="90" as="geometry" />
        </mxCell>
        <mxCell id="Uq1Z9XiAAdLzME6Be9Bc-6" value="Kafka" style="text;whiteSpace=wrap;html=1;fontStyle=1" vertex="1" parent="1">
          <mxGeometry x="600" y="170" width="70" height="20" as="geometry" />
        </mxCell>
        <mxCell id="Uq1Z9XiAAdLzME6Be9Bc-7" value="&amp;lt;&amp;lt;import&amp;gt;&amp;gt;" style="endArrow=open;endSize=12;dashed=1;html=1;rounded=0;entryX=0;entryY=0;entryDx=0;entryDy=60;entryPerimeter=0;" edge="1" parent="1" target="Uq1Z9XiAAdLzME6Be9Bc-5">
          <mxGeometry width="160" relative="1" as="geometry">
            <mxPoint x="490" y="230" as="sourcePoint" />
            <mxPoint x="650" y="230" as="targetPoint" />
          </mxGeometry>
        </mxCell>
      </root>
    </mxGraphModel>
  </diagram>
</mxfile>
